<?xml version="1.0" standalone="no"?>
<!DOCTYPE svg PUBLIC "-//W3C//DTD SVG 20010904//EN"
 "http://www.w3.org/TR/2001/REC-SVG-20010904/DTD/svg10.dtd">
<svg version="1.0" xmlns="http://www.w3.org/2000/svg"
 width="730.000000pt" height="207.000000pt" viewBox="0 0 730.000000 207.000000"
 preserveAspectRatio="xMidYMid meet">

<g transform="translate(0.000000,207.000000) scale(0.100000,-0.100000)"
fill="#000000" stroke="none">
<path d="M979 2040 c-173 -91 -398 -461 -444 -730 -24 -139 2 -220 70 -220 71
0 212 123 309 268 l44 67 70 -5 c39 -3 73 -8 77 -12 8 -8 35 -108 35 -131 0
-11 -12 -52 -26 -91 -21 -62 -31 -76 -59 -89 -18 -9 -48 -34 -65 -56 -18 -22
-86 -88 -151 -146 -91 -81 -129 -123 -159 -175 -34 -58 -46 -71 -82 -84 -24
-9 -74 -27 -112 -41 -91 -33 -126 -61 -185 -148 -27 -40 -75 -97 -106 -127
-31 -30 -63 -67 -70 -81 -8 -14 -30 -46 -51 -70 -20 -24 -46 -64 -58 -87 -21
-43 -21 -44 -2 -58 12 -9 44 -14 83 -14 82 0 103 18 103 89 0 28 4 52 9 55 5
3 18 25 29 50 26 55 130 131 215 158 83 26 113 46 177 121 57 67 110 100 213
138 65 24 60 26 108 -49 11 -17 25 -29 31 -26 7 5 9 -10 6 -44 l-5 -51 27 35
28 34 4 -35 c2 -20 -1 -50 -8 -68 -30 -83 -38 -88 61 38 l47 60 -6 -47 c-4
-27 -5 -48 -2 -48 3 0 32 39 65 88 33 48 83 112 110 142 l49 55 71 -38 c38
-21 94 -46 123 -57 38 -13 46 -19 28 -19 -35 -2 -101 -34 -126 -62 -11 -13
-37 -51 -57 -84 -19 -33 -71 -96 -114 -140 -44 -44 -82 -88 -86 -98 -5 -14 4
-30 33 -60 21 -23 55 -59 74 -79 32 -36 37 -38 95 -38 34 0 61 4 61 8 0 5 -18
23 -41 41 -81 66 -102 140 -53 186 47 44 126 91 281 169 84 41 157 84 163 95
15 30 12 83 -8 111 -47 69 -176 221 -224 266 -31 28 -81 63 -112 80 -49 26
-56 33 -56 60 0 16 6 39 14 50 14 18 17 17 65 -36 27 -30 50 -60 51 -66 0 -6
7 -26 16 -43 15 -30 19 -32 50 -26 21 3 34 2 34 -5 0 -5 9 -10 19 -10 14 0 18
5 14 20 -5 20 0 20 396 20 l401 0 0 -120 c0 -73 4 -120 10 -120 6 0 10 47 10
120 l0 120 38 0 c20 0 55 5 77 12 l40 11 -30 10 c-18 7 -210 12 -488 14 -447
4 -458 5 -452 24 5 15 2 19 -14 19 -12 0 -21 -7 -21 -15 0 -13 -6 -12 -37 4
-45 24 -64 49 -86 115 -10 27 -17 51 -17 52 0 2 16 18 36 37 l36 34 -7 88 c-8
98 -30 135 -79 135 -31 0 -42 16 -25 36 7 9 25 13 46 12 31 -3 36 0 47 33 7
19 11 40 8 47 -2 7 2 12 8 12 15 0 4 34 -27 83 -16 25 -31 37 -46 37 -50 0
-64 -55 -22 -88 14 -11 25 -28 25 -38 -1 -16 -3 -15 -14 5 -7 13 -27 29 -44
36 -16 7 -49 38 -71 69 -23 31 -53 63 -67 72 -31 21 -25 29 10 13 14 -7 44
-41 65 -76 41 -65 66 -82 55 -39 -4 19 0 28 20 41 35 23 67 15 92 -23 l23 -33
6 44 c21 139 -151 219 -281 130 l-38 -25 -23 26 c-13 15 -23 35 -23 44 -1 15
-2 15 -10 2 -5 -9 -11 -48 -14 -88 -4 -70 -4 -74 23 -98 38 -34 46 -91 20
-149 l-19 -43 -36 11 c-26 8 -47 8 -79 -1 -74 -20 -77 -12 -39 83 73 178 94
337 54 403 -17 27 -25 32 -57 32 -21 -1 -54 -9 -74 -20z m361 -288 c0 -5 16
-27 36 -50 53 -62 36 -51 -35 24 -51 53 -57 63 -32 50 17 -9 31 -20 31 -24z
m-194 -610 c-20 -20 -22 -1 -3 28 10 18 12 18 15 4 2 -9 -3 -24 -12 -32z m897
-169 c-68 -2 -178 -2 -245 0 -68 1 -13 3 122 3 135 0 190 -2 123 -3z m-810
-290 c-4 -11 -3 -14 5 -9 21 13 13 -18 -13 -49 -14 -18 -24 -24 -25 -15 0 8
-16 -1 -41 -25 l-42 -40 33 50 c29 45 79 105 87 105 1 0 -1 -7 -4 -17z"/>
<path d="M2090 1460 l0 -340 84 0 85 0 3 149 c3 130 5 152 22 170 25 27 79 28
106 1 18 -18 20 -33 20 -170 l0 -150 90 0 90 0 0 173 c0 95 -5 190 -11 212
-32 113 -181 151 -277 70 -17 -14 -33 -25 -36 -25 -3 0 -6 56 -6 125 l0 125
-85 0 -85 0 0 -340z"/>
<path d="M2620 1715 l0 -65 95 0 95 0 0 65 0 65 -95 0 -95 0 0 -65z"/>
<path d="M3360 1450 l0 -330 95 0 95 0 1 108 c1 85 3 99 9 65 5 -23 16 -55 24
-71 18 -34 78 -90 113 -103 43 -16 131 -11 173 11 34 17 40 18 40 5 0 -12 17
-15 95 -15 l95 0 0 330 0 330 -95 0 -95 0 0 -110 0 -110 -37 20 c-45 24 -138
27 -186 6 -51 -22 -108 -88 -123 -143 -12 -44 -13 -32 -13 145 l-1 192 -95 0
-95 0 0 -330z m530 0 c16 -16 20 -33 20 -88 0 -76 -14 -106 -56 -116 -15 -4
-40 -2 -55 5 -58 24 -66 165 -12 207 26 19 80 15 103 -8z"/>
<path d="M5500 1715 l0 -65 90 0 90 0 0 65 0 65 -90 0 -90 0 0 -65z"/>
<path d="M6040 1670 l0 -110 -32 20 c-45 27 -144 27 -198 0 -49 -25 -90 -75
-112 -137 l-16 -48 -1 103 -1 102 -90 0 -90 0 0 -240 0 -240 90 0 90 0 1 108
1 107 18 -58 c23 -74 58 -120 113 -146 56 -27 139 -28 190 -2 29 15 37 16 37
5 0 -11 20 -14 95 -14 l95 0 0 330 0 330 -95 0 -95 0 0 -110z m-19 -219 c21
-17 24 -28 24 -91 0 -66 -2 -74 -28 -96 -36 -31 -71 -31 -102 1 -21 21 -25 33
-25 88 0 50 5 70 21 91 25 32 75 35 110 7z"/>
<path d="M1720 1598 c-61 -32 -90 -77 -90 -143 0 -83 46 -125 175 -159 108
-28 113 -72 7 -62 -29 2 -73 12 -98 22 -24 9 -46 15 -48 13 -1 -2 -17 -25 -35
-51 l-31 -47 23 -16 c91 -59 269 -76 355 -33 26 12 57 38 69 57 43 64 22 169
-39 202 -13 7 -61 25 -108 39 -84 27 -101 42 -69 63 12 7 37 5 88 -7 39 -9 75
-14 81 -11 6 4 21 28 35 55 l24 48 -52 23 c-39 17 -76 24 -147 27 -84 3 -100
1 -140 -20z"/>
<path d="M3023 1611 c-49 -13 -120 -58 -149 -96 -49 -65 -65 -156 -40 -228 36
-99 109 -160 211 -177 110 -18 201 22 265 114 l31 46 -80 0 c-64 0 -87 -4
-116 -21 -32 -19 -41 -20 -75 -10 -35 10 -70 42 -70 63 0 5 79 8 176 8 l177 0
-7 57 c-12 105 -62 185 -138 224 -43 22 -137 32 -185 20z m104 -142 c26 -10
43 -25 43 -41 0 -5 -38 -8 -85 -8 -47 0 -85 4 -85 8 0 13 32 39 55 45 33 8 43
7 72 -4z"/>
<path d="M4380 1609 c-14 -5 -35 -22 -47 -37 l-23 -27 0 28 0 27 -90 0 -90 0
0 -240 0 -240 90 0 90 0 0 148 c0 117 3 152 16 170 19 28 57 29 84 2 18 -18
20 -33 20 -170 l0 -150 90 0 90 0 0 140 c0 163 11 200 59 200 16 0 36 -9 47
-21 17 -18 19 -40 22 -170 l3 -149 85 0 84 0 1 108 1 107 18 -58 c23 -74 58
-120 113 -146 56 -27 139 -28 190 -2 29 15 37 16 37 5 0 -11 20 -14 95 -14
l95 0 0 240 0 240 -95 0 c-88 0 -95 -1 -95 -20 0 -20 0 -20 -32 0 -45 27 -144
27 -197 0 -51 -26 -96 -81 -112 -139 l-14 -46 -6 63 c-4 39 -14 73 -26 90 -63
85 -169 96 -250 27 l-40 -34 -19 21 c-43 47 -135 70 -194 47z m871 -158 c21
-17 24 -28 24 -91 0 -66 -2 -74 -28 -96 -36 -31 -71 -31 -102 1 -21 21 -25 33
-25 88 0 50 5 70 21 91 25 32 75 35 110 7z"/>
<path d="M6420 1600 c-66 -22 -140 -96 -158 -157 -64 -212 142 -399 351 -319
43 16 147 113 147 137 0 5 -36 9 -80 9 -67 0 -86 -4 -110 -21 -34 -26 -81 -21
-117 13 -47 44 -36 48 147 48 l170 0 0 45 c0 111 -75 221 -171 249 -68 21
-111 20 -179 -4z m161 -146 c11 -9 19 -21 19 -26 0 -4 -41 -8 -90 -8 -88 0
-90 1 -78 20 26 41 110 49 149 14z"/>
<path d="M7045 1602 c-22 -10 -46 -26 -54 -35 -19 -24 -31 -21 -31 8 0 25 -1
25 -85 25 l-85 0 0 -240 0 -240 84 0 85 0 3 149 c3 130 5 152 22 170 25 27 79
28 106 1 18 -18 20 -33 20 -170 l0 -150 91 0 91 0 -4 193 c-3 211 -9 235 -68
277 -43 31 -124 36 -175 12z"/>
<path d="M2620 1360 l0 -240 95 0 95 0 0 240 0 240 -95 0 -95 0 0 -240z"/>
<path d="M2700 850 l0 -140 105 0 c130 0 141 18 13 22 l-93 3 0 50 0 50 88 3
c115 4 113 22 -3 22 l-90 0 0 50 0 50 95 0 c78 0 95 3 95 15 0 12 -18 15 -105
15 l-105 0 0 -140z"/>
<path d="M3096 980 c-97 -30 -124 -168 -46 -234 60 -50 146 -43 196 17 34 40
16 47 -23 8 -98 -98 -242 15 -178 139 20 38 43 50 100 50 40 0 52 -5 76 -31
16 -17 34 -29 40 -27 14 5 -35 65 -59 72 -43 12 -79 14 -106 6z"/>
<path d="M3377 983 c-4 -3 -7 -66 -7 -140 0 -112 2 -133 15 -133 12 0 15 14
15 65 l0 65 85 0 85 0 0 -65 c0 -37 4 -65 10 -65 6 0 10 53 10 140 0 87 -4
140 -10 140 -6 0 -10 -28 -10 -65 l0 -65 -85 0 -85 0 0 65 c0 60 -6 75 -23 58z"/>
<path d="M3710 850 c0 -171 18 -191 22 -25 l3 116 89 -116 c48 -63 92 -115 97
-115 5 0 9 63 9 140 0 172 -18 191 -22 23 l-3 -116 -89 116 c-49 64 -93 117
-97 117 -5 0 -9 -63 -9 -140z"/>
<path d="M4133 979 c-72 -21 -108 -107 -78 -185 27 -72 104 -101 180 -70 91
38 102 196 17 240 -40 20 -83 26 -119 15z m116 -40 c87 -82 21 -226 -95 -204
-82 15 -115 135 -55 196 25 24 38 29 78 29 36 0 55 -6 72 -21z"/>
<path d="M4420 850 l0 -140 105 0 c130 0 141 18 13 22 l-93 3 -3 128 c-4 176
-22 166 -22 -13z"/>
<path d="M4799 981 c-70 -22 -99 -61 -99 -133 0 -55 30 -105 75 -124 47 -19
79 -18 124 6 102 52 84 219 -27 250 -41 11 -38 11 -73 1z m112 -50 c60 -61 27
-181 -55 -196 -90 -17 -160 71 -127 158 18 46 50 67 104 67 40 0 53 -5 78 -29z"/>
<path d="M5169 981 c-76 -24 -104 -66 -97 -148 7 -83 72 -134 153 -119 60 12
114 77 115 139 0 4 -34 7 -75 7 -43 0 -75 -4 -75 -10 0 -6 27 -10 60 -10 53 0
60 -2 60 -19 0 -31 -48 -80 -84 -86 -90 -17 -160 71 -127 158 18 46 50 67 104
67 42 0 53 -4 78 -31 16 -17 34 -29 41 -26 19 6 -55 77 -80 77 -11 0 -26 2
-34 4 -7 2 -25 1 -39 -3z"/>
<path d="M5424 974 c3 -8 26 -44 51 -78 42 -59 45 -68 45 -125 0 -48 3 -61 15
-61 12 0 15 13 15 60 0 56 3 65 48 128 64 88 66 92 49 92 -7 0 -34 -29 -58
-65 -24 -35 -47 -65 -51 -65 -4 0 -28 29 -53 65 -43 60 -75 86 -61 49z"/>
<path d="M5927 983 c-4 -3 -7 -66 -7 -140 0 -112 2 -133 15 -133 13 0 15 22
15 140 0 128 -4 152 -23 133z"/>
<path d="M6060 850 c0 -172 18 -191 22 -23 l3 117 90 -117 c49 -64 95 -117
102 -117 10 0 13 27 13 109 0 60 -3 123 -6 140 -13 63 -23 28 -26 -84 l-3
-115 -88 115 c-48 63 -92 115 -97 115 -6 0 -10 -58 -10 -140z"/>
<path d="M6499 981 c-70 -22 -99 -61 -99 -133 0 -78 59 -138 136 -138 36 0
100 37 113 66 15 34 -4 31 -35 -6 -64 -75 -194 -26 -194 74 0 71 44 116 113
116 41 0 53 -5 79 -30 17 -17 35 -29 42 -27 17 6 -59 77 -82 77 -11 0 -26 2
-34 4 -7 2 -25 1 -39 -3z"/>
<path d="M6756 732 c-3 -6 -1 -14 5 -17 15 -10 25 3 12 16 -7 7 -13 7 -17 1z"/>
</g>
</svg>
